<svg width="196" height="66" viewBox="0 0 196 66" fill="none" xmlns="http://www.w3.org/2000/svg">
<path fill-rule="evenodd" clip-rule="evenodd" d="M19.8091 15.4354C21.8657 13.3809 25.201 13.3809 27.2682 15.4354L37.4021 25.559L47.5253 15.4354C49.5819 13.3809 52.9172 13.3809 54.9845 15.4354L68.8372 29.2741C70.8939 31.3286 70.8939 34.6606 68.8372 36.7257C66.7806 38.7803 63.4453 38.7803 61.3781 36.7257L51.2549 26.6022L44.8506 32.9999L54.9845 43.1235C57.0411 45.178 57.0411 48.5099 54.9845 50.5751C52.9279 52.6296 49.5925 52.6296 47.5253 50.5751L19.8091 22.8764C17.7525 20.8219 17.7525 17.4899 19.8091 15.4354Z" fill="white"/>
<path d="M78.971 24.4303C81.8841 24.4303 84.2457 22.0711 84.2457 19.161C84.2457 16.2508 81.8841 13.8916 78.971 13.8916C76.0579 13.8916 73.6963 16.2508 73.6963 19.161C73.6963 22.0711 76.0579 24.4303 78.971 24.4303Z" fill="white"/>
<path d="M106.679 42C106.679 41.1337 106.679 40.2942 106.679 39.4815C106.679 38.6612 106.679 37.7335 106.679 36.6985V31.098C106.679 30.017 106.679 29.0548 106.679 28.2115C106.679 27.3605 106.679 26.4903 106.679 25.601H111.428C111.428 26.4903 111.428 27.3605 111.428 28.2115C111.428 29.0548 111.428 30.017 111.428 31.098V36.6985C111.428 37.7335 111.428 38.6612 111.428 39.4815C111.428 40.2942 111.428 41.1337 111.428 42H106.679ZM96.8233 42C96.8233 41.1337 96.8233 40.2942 96.8233 39.4815C96.8233 38.6612 96.8233 37.7335 96.8233 36.6985V31.098C96.8233 30.017 96.8233 29.0548 96.8233 28.2115C96.8233 27.3605 96.8233 26.4903 96.8233 25.601H101.573C101.573 26.4903 101.573 27.3605 101.573 28.2115C101.573 29.0548 101.573 30.017 101.573 31.098V36.6985C101.573 37.7335 101.573 38.6612 101.573 39.4815C101.573 40.2942 101.573 41.1337 101.573 42H96.8233ZM100.354 35.721V31.7995H107.955V35.721H100.354ZM113.958 42C113.958 41.1873 113.958 40.4015 113.958 39.6425C113.958 38.8835 113.958 38.0248 113.958 37.0665V35.9165C113.958 35.1115 113.958 34.4023 113.958 33.789C113.958 33.1757 113.958 32.6083 113.958 32.087C113.958 31.558 113.958 31.0252 113.958 30.4885L118.247 30.3735C118.247 30.9178 118.247 31.4583 118.247 31.995C118.247 32.5317 118.247 33.1143 118.247 33.743C118.247 34.3717 118.247 35.0962 118.247 35.9165V37.0665C118.247 38.0248 118.247 38.8835 118.247 39.6425C118.247 40.4015 118.247 41.1873 118.247 42H113.958ZM116.085 29.2005C115.326 29.2005 114.721 29.028 114.268 28.683C113.824 28.338 113.601 27.7668 113.601 26.9695C113.601 26.2795 113.824 25.7467 114.268 25.371C114.721 24.9877 115.334 24.796 116.108 24.796C116.883 24.796 117.488 24.9953 117.925 25.394C118.37 25.785 118.592 26.3102 118.592 26.9695C118.592 27.7668 118.37 28.338 117.925 28.683C117.481 29.028 116.867 29.2005 116.085 29.2005ZM127.759 42C127.521 41.5553 127.279 41.1145 127.034 40.6775C126.789 40.2328 126.547 39.7958 126.31 39.3665L125.39 37.6875H124.493V34.9045H125.413L126.264 33.3405C126.524 32.8652 126.785 32.3898 127.046 31.9145C127.306 31.4392 127.563 30.9638 127.816 30.4885H132.738C132.24 31.1938 131.749 31.8953 131.266 32.593C130.783 33.283 130.296 33.9768 129.806 34.6745L128.368 36.7445L128.161 34.8815L130.024 37.722C130.515 38.435 131.002 39.1518 131.485 39.8725C131.975 40.5855 132.458 41.2947 132.934 42H127.759ZM120.537 42C120.537 41.1873 120.537 40.4015 120.537 39.6425C120.537 38.8835 120.537 38.0248 120.537 37.0665V30.661C120.537 29.7333 120.537 28.8133 120.537 27.901C120.537 26.981 120.537 26.0572 120.537 25.1295L124.826 24.796C124.826 25.6853 124.826 26.6168 124.826 27.5905C124.826 28.5565 124.826 29.58 124.826 30.661V37.952C124.826 38.6727 124.826 39.355 124.826 39.999C124.826 40.6353 124.826 41.3023 124.826 42H120.537ZM134.24 42C134.24 41.1873 134.24 40.4015 134.24 39.6425C134.24 38.8835 134.24 38.0248 134.24 37.0665V35.9165C134.24 35.1115 134.24 34.4023 134.24 33.789C134.24 33.1757 134.24 32.6083 134.24 32.087C134.24 31.558 134.24 31.0252 134.24 30.4885L138.529 30.3735C138.529 30.9178 138.529 31.4583 138.529 31.995C138.529 32.5317 138.529 33.1143 138.529 33.743C138.529 34.3717 138.529 35.0962 138.529 35.9165V37.0665C138.529 38.0248 138.529 38.8835 138.529 39.6425C138.529 40.4015 138.529 41.1873 138.529 42H134.24ZM136.367 29.2005C135.608 29.2005 135.003 29.028 134.55 28.683C134.106 28.338 133.883 27.7668 133.883 26.9695C133.883 26.2795 134.106 25.7467 134.55 25.371C135.003 24.9877 135.616 24.796 136.39 24.796C137.165 24.796 137.77 24.9953 138.207 25.394C138.652 25.785 138.874 26.3102 138.874 26.9695C138.874 27.7668 138.652 28.338 138.207 28.683C137.763 29.028 137.149 29.2005 136.367 29.2005ZM140.819 42C140.819 41.1873 140.819 40.4015 140.819 39.6425C140.819 38.8835 140.819 38.0248 140.819 37.0665V35.9165C140.819 35.0195 140.819 34.1263 140.819 33.237C140.819 32.34 140.819 31.4238 140.819 30.4885L144.395 30.293L144.579 32.2135H144.924C145.193 31.8225 145.503 31.4737 145.856 31.167C146.216 30.8527 146.626 30.6035 147.086 30.4195C147.546 30.2355 148.064 30.1435 148.639 30.1435C149.758 30.1435 150.621 30.4808 151.226 31.1555C151.832 31.8225 152.135 32.8383 152.135 34.203C152.135 34.709 152.135 35.1958 152.135 35.6635C152.135 36.1235 152.135 36.5912 152.135 37.0665C152.135 38.0172 152.135 38.8758 152.135 39.6425C152.135 40.4015 152.135 41.1873 152.135 42H147.845C147.845 41.1873 147.845 40.4092 147.845 39.6655C147.845 38.9218 147.845 38.136 147.845 37.308V35.652C147.845 35.1153 147.765 34.7128 147.604 34.4445C147.443 34.1685 147.152 34.0305 146.73 34.0305C146.5 34.0305 146.285 34.0765 146.086 34.1685C145.894 34.2605 145.714 34.387 145.545 34.548C145.384 34.709 145.239 34.8853 145.108 35.077V37.308C145.108 38.1437 145.108 38.9333 145.108 39.677C145.108 40.413 145.108 41.1873 145.108 42H140.819ZM158.496 46.7265C157.622 46.7265 156.886 46.6537 156.288 46.508C155.697 46.37 155.226 46.1783 154.873 45.933C154.52 45.6877 154.267 45.4078 154.114 45.0935C153.961 44.7792 153.884 44.4495 153.884 44.1045C153.884 43.6062 154.007 43.1998 154.252 42.8855C154.505 42.5712 154.8 42.3258 155.138 42.1495C155.483 41.9732 155.793 41.8467 156.069 41.77V41.5055C155.862 41.4672 155.651 41.3752 155.437 41.2295C155.23 41.0762 155.049 40.8807 154.896 40.643C154.75 40.3977 154.678 40.1063 154.678 39.769C154.678 39.516 154.727 39.2668 154.827 39.0215C154.934 38.7762 155.095 38.5538 155.31 38.3545C155.525 38.1475 155.808 37.9788 156.161 37.8485V37.5725C155.854 37.4575 155.552 37.3042 155.253 37.1125C154.961 36.9132 154.693 36.6717 154.448 36.388C154.202 36.0967 154.003 35.7593 153.85 35.376C153.704 34.985 153.631 34.5365 153.631 34.0305C153.631 33.3252 153.807 32.6812 154.16 32.0985C154.513 31.5082 155.069 31.0367 155.828 30.684C156.587 30.3237 157.576 30.1435 158.795 30.1435C159.262 30.1435 159.669 30.1665 160.014 30.2125C160.359 30.2585 160.719 30.3045 161.095 30.3505C161.47 30.3965 161.946 30.4195 162.521 30.4195H165.453V33.076C164.763 33.076 164.111 33.076 163.498 33.076C162.885 33.076 162.256 33.076 161.612 33.076L162.716 31.443C163.107 31.765 163.402 32.156 163.602 32.616C163.801 33.076 163.901 33.6012 163.901 34.1915C163.901 34.8968 163.728 35.4872 163.383 35.9625C163.038 36.4378 162.582 36.8173 162.015 37.101C161.455 37.3847 160.845 37.5955 160.186 37.7335C159.634 37.8485 159.228 37.9558 158.967 38.0555C158.706 38.1552 158.576 38.3162 158.576 38.5385C158.576 38.6688 158.63 38.7685 158.737 38.8375C158.852 38.9065 159.025 38.9563 159.255 38.987C159.492 39.01 159.795 39.0215 160.163 39.0215H160.6C161.528 39.0215 162.344 39.1097 163.05 39.286C163.763 39.4623 164.318 39.7767 164.717 40.229C165.116 40.6813 165.315 41.3253 165.315 42.161C165.315 43.012 165.112 43.7288 164.706 44.3115C164.307 44.9018 163.77 45.3733 163.096 45.726C162.421 46.0787 161.681 46.3317 160.876 46.485C160.079 46.646 159.285 46.7265 158.496 46.7265ZM159.082 44.0125C159.588 44.0125 160.006 43.9512 160.336 43.8285C160.673 43.7058 160.922 43.5602 161.083 43.3915C161.244 43.2305 161.325 43.0848 161.325 42.9545C161.325 42.8088 161.271 42.6785 161.164 42.5635C161.064 42.4485 160.872 42.3565 160.589 42.2875C160.305 42.2262 159.883 42.1955 159.324 42.1955H159.002C158.756 42.2185 158.507 42.2683 158.254 42.345C158.001 42.4293 157.79 42.5405 157.622 42.6785C157.461 42.8165 157.38 42.9852 157.38 43.1845C157.38 43.2995 157.415 43.4068 157.484 43.5065C157.553 43.6062 157.656 43.6943 157.794 43.771C157.932 43.8477 158.108 43.9052 158.323 43.9435C158.538 43.9895 158.791 44.0125 159.082 44.0125ZM158.772 35.8015C158.948 35.7938 159.124 35.7632 159.301 35.7095C159.485 35.6558 159.653 35.583 159.807 35.491C159.96 35.3913 160.083 35.2725 160.175 35.1345C160.267 34.9888 160.313 34.824 160.313 34.64C160.313 34.4023 160.247 34.1992 160.117 34.0305C159.987 33.8618 159.814 33.7353 159.6 33.651C159.385 33.559 159.143 33.513 158.875 33.513C158.63 33.513 158.404 33.559 158.197 33.651C157.997 33.7353 157.836 33.858 157.714 34.019C157.599 34.18 157.541 34.364 157.541 34.571C157.541 34.778 157.595 34.9658 157.702 35.1345C157.817 35.3032 157.967 35.445 158.151 35.56C158.342 35.675 158.549 35.7555 158.772 35.8015Z" fill="white"/>
</svg>
